<?xml version="1.0"?>
<svg xmlns="http://www.w3.org/2000/svg" xmlns:xlink="http://www.w3.org/1999/xlink" xmlns:svgjs="http://svgjs.com/svgjs" version="1.1" width="512" height="512" x="0" y="0" viewBox="0 0 512 512" style="enable-background:new 0 0 512 512" xml:space="preserve" class=""><g><g xmlns="http://www.w3.org/2000/svg"><path d="m437 0h-362c-41.355 0-75 33.645-75 75v362c0 41.355 33.645 75 75 75h362c41.355 0 75-33.645 75-75v-362c0-41.355-33.645-75-75-75zm-21 271h-145v145c0 8.284-6.716 15-15 15s-15-6.716-15-15v-145h-145c-8.284 0-15-6.716-15-15s6.716-15 15-15h145v-145c0-8.284 6.716-15 15-15s15 6.716 15 15v145h145c8.284 0 15 6.716 15 15s-6.716 15-15 15z" fill="#7a3838" data-original="#000000" style="" class=""/></g></g></svg>
